<svg xmlns="http://www.w3.org/2000/svg" xmlns:xlink="http://www.w3.org/1999/xlink" viewBox="0 0 48 48"><defs><style>.ac5290c7-e622-4367-b10e-c7b5a642f41b{fill:#a4adbb;}.a2c37e57-f597-4b16-a4c5-7fd30dda78ad{fill:url(#fb8fc972-1284-4034-893d-082c24cb96ca);}.fed8974d-7193-45ba-9f2c-2e212c3fe1e3{fill:#fff;}.e6ba928a-dc02-45b5-b87c-90fa6cae48fe{fill:url(#a03d21aa-9536-46a8-ac1a-45d5089194c2);}.b207f137-2ed6-45f0-bc09-b89f67e768cd{fill:url(#bfa66daa-09a6-45c1-962b-e8186375409c);}.b7f016dd-5071-4566-b9b3-cb2f4598bbc9{fill:url(#b149324a-16cd-431f-a1c5-43ed4d437f60);}.b3e3bffb-4ee6-47d6-93eb-a1a50d8ad5e4{fill:url(#f38e4609-bfaf-4cd4-8612-1749cc53ca84);}.a82e5017-46ee-41df-b003-b7c76d34549e{fill:url(#ea48010f-f6c9-416e-adc9-e826d0bb82a2);}.e25c62a9-8fea-4f2a-80ab-95fbbc0cb724{fill:url(#bbf1bebb-86e8-498f-ae68-dd48d4b4242c);}.add3a70f-8fbb-413c-b9fc-60ab64c39bd5{fill:url(#eaa09fbd-9963-449d-a19c-210a7ebb06b9);}.a2891481-201f-4fd4-b40a-f266877c2559{fill:url(#be4ca0f6-f79f-4219-9f04-f5e69c5c6b41);}.b45d4c7d-07bf-4961-b87d-f3b01d325708{fill:url(#ee283010-510d-469c-9647-013baf0b7289);}.fa3ec4a2-de09-46e2-a207-b29a80d634bc{fill:url(#ec9ac212-559c-415f-b086-cd32f00911e0);}.bd9bb46b-786e-44c1-b514-75af1b023f5b{fill:url(#ab03d6f7-d4e5-4067-882c-985c3394479b);}.e5ef36ab-1858-40da-9530-898794f1663b{fill:url(#e1e279c2-a7a4-4d39-ab24-6d4d3b9fb2f5);}.b14fbbd5-b830-4044-9d34-8868de4beab1{fill:url(#f3559079-8655-494d-942e-c9dfae7c8a7c);}.f313d1ad-efd9-44ff-876d-d201d09de33a{fill:url(#e24b4d31-a367-4192-b073-74517e3508a1);}.a5210383-dd09-45ca-b189-121b4692a81c{fill:url(#e4be99cd-efc9-45b2-ba25-37f20e69d25a);}.f519a8e6-1e8c-408a-88e7-7fa539a93392{fill:url(#b45fe986-a6f4-4e58-9933-3734b9cb88a5);}.a66a2c53-1f1b-4a6b-94a6-d98c9b28917a{fill:url(#af6bb5c1-5633-4135-b7d7-7cb53db9a99b);}</style><linearGradient id="fb8fc972-1284-4034-893d-082c24cb96ca" x1="4.22" y1="25.03" x2="43.78" y2="25.03" gradientUnits="userSpaceOnUse"><stop offset="0" stop-color="#dee2e6"/><stop offset="1" stop-color="#fafdff"/></linearGradient><linearGradient id="a03d21aa-9536-46a8-ac1a-45d5089194c2" x1="6.87" y1="13.12" x2="13.09" y2="13.12" gradientUnits="userSpaceOnUse"><stop offset="0" stop-color="#4e5f7a"/><stop offset="1" stop-color="#8793a6"/></linearGradient><linearGradient id="bfa66daa-09a6-45c1-962b-e8186375409c" x1="6.87" y1="13.17" x2="13.09" y2="13.17" xlink:href="#a03d21aa-9536-46a8-ac1a-45d5089194c2"/><linearGradient id="b149324a-16cd-431f-a1c5-43ed4d437f60" x1="6.87" y1="13.21" x2="13.09" y2="13.21" xlink:href="#a03d21aa-9536-46a8-ac1a-45d5089194c2"/><linearGradient id="f38e4609-bfaf-4cd4-8612-1749cc53ca84" x1="11.69" y1="25.96" x2="23.66" y2="25.67" xlink:href="#a03d21aa-9536-46a8-ac1a-45d5089194c2"/><linearGradient id="ea48010f-f6c9-416e-adc9-e826d0bb82a2" x1="8.56" y1="31.3" x2="24.14" y2="31.3" xlink:href="#a03d21aa-9536-46a8-ac1a-45d5089194c2"/><linearGradient id="bbf1bebb-86e8-498f-ae68-dd48d4b4242c" x1="18.07" y1="31.3" x2="37.23" y2="31.3" gradientUnits="userSpaceOnUse"><stop offset="0" stop-color="#96a0b0"/><stop offset="1" stop-color="#b1bac6"/></linearGradient><linearGradient id="eaa09fbd-9963-449d-a19c-210a7ebb06b9" x1="17.59" y1="25.83" x2="33.97" y2="25.83" xlink:href="#a03d21aa-9536-46a8-ac1a-45d5089194c2"/><linearGradient id="be4ca0f6-f79f-4219-9f04-f5e69c5c6b41" x1="1.16" y1="20.37" x2="19.03" y2="20.37" xlink:href="#a03d21aa-9536-46a8-ac1a-45d5089194c2"/><linearGradient id="ee283010-510d-469c-9647-013baf0b7289" x1="15.07" y1="20.23" x2="33.59" y2="20.49" xlink:href="#bbf1bebb-86e8-498f-ae68-dd48d4b4242c"/><linearGradient id="ec9ac212-559c-415f-b086-cd32f00911e0" x1="4.74" y1="20.2" x2="52.37" y2="20.46" xlink:href="#a03d21aa-9536-46a8-ac1a-45d5089194c2"/><linearGradient id="ab03d6f7-d4e5-4067-882c-985c3394479b" x1="18.4" y1="30.97" x2="37.36" y2="30.4" xlink:href="#a03d21aa-9536-46a8-ac1a-45d5089194c2"/><linearGradient id="e1e279c2-a7a4-4d39-ab24-6d4d3b9fb2f5" x1="18.45" y1="32.76" x2="37.41" y2="32.19" xlink:href="#a03d21aa-9536-46a8-ac1a-45d5089194c2"/><linearGradient id="f3559079-8655-494d-942e-c9dfae7c8a7c" x1="17.37" y1="8.79" x2="42.84" y2="8.98" gradientUnits="userSpaceOnUse"><stop offset="0" stop-color="#314563"/><stop offset="1" stop-color="#68778d"/></linearGradient><linearGradient id="e24b4d31-a367-4192-b073-74517e3508a1" x1="17.33" y1="13.5" x2="42.81" y2="13.69" xlink:href="#f3559079-8655-494d-942e-c9dfae7c8a7c"/><linearGradient id="e4be99cd-efc9-45b2-ba25-37f20e69d25a" x1="17.37" y1="8.69" x2="42.84" y2="8.88" xlink:href="#f3559079-8655-494d-942e-c9dfae7c8a7c"/><linearGradient id="b45fe986-a6f4-4e58-9933-3734b9cb88a5" x1="17.33" y1="13.4" x2="42.81" y2="13.59" xlink:href="#f3559079-8655-494d-942e-c9dfae7c8a7c"/><linearGradient id="af6bb5c1-5633-4135-b7d7-7cb53db9a99b" x1="17.35" y1="11.1" x2="42.82" y2="11.29" xlink:href="#f3559079-8655-494d-942e-c9dfae7c8a7c"/></defs><title>engeneering</title><g id="b9d4b737-c88f-40d1-9121-335246bfac0a" data-name="Layer 2"><g id="bd2ad6ad-ba61-47ee-8e71-52b47ee643ac" data-name="icons"><g id="bec166e9-7a96-4f8d-9eb9-da90ffcba2d2" data-name="engeneering"><rect class="ac5290c7-e622-4367-b10e-c7b5a642f41b" width="48" height="48"/><rect class="a2c37e57-f597-4b16-a4c5-7fd30dda78ad" x="4.22" y="11.28" width="39.56" height="27.5" rx="0.69"/><path class="fed8974d-7193-45ba-9f2c-2e212c3fe1e3" d="M43.78,12v3H4.22V12a.69.69,0,0,1,.69-.69H43.09A.69.69,0,0,1,43.78,12Z"/><circle class="e6ba928a-dc02-45b5-b87c-90fa6cae48fe" cx="6.95" cy="13.12" r="0.94"/><circle class="b207f137-2ed6-45f0-bc09-b89f67e768cd" cx="9.68" cy="13.17" r="0.94"/><circle class="b7f016dd-5071-4566-b9b3-cb2f4598bbc9" cx="12.42" cy="13.21" r="0.94"/><path class="b3e3bffb-4ee6-47d6-93eb-a1a50d8ad5e4" d="M20.56,27H12.93a1.18,1.18,0,0,1,0-2.35h7.63a1.18,1.18,0,1,1,0,2.35Z"/><path class="a82e5017-46ee-41df-b003-b7c76d34549e" d="M20.56,32.47H12.93a1.18,1.18,0,0,1,0-2.35h7.63a1.18,1.18,0,1,1,0,2.35Z"/><path class="e25c62a9-8fea-4f2a-80ab-95fbbc0cb724" d="M32.05,32.47h-7a1.18,1.18,0,0,1,0-2.35h7a1.18,1.18,0,1,1,0,2.35Z"/><path class="add3a70f-8fbb-413c-b9fc-60ab64c39bd5" d="M34.41,27H25.84a1.18,1.18,0,1,1,0-2.35h8.57a1.18,1.18,0,0,1,0,2.35Z"/><path class="a2891481-201f-4fd4-b40a-f266877c2559" d="M16.61,21.55H9a1.18,1.18,0,0,1,0-2.36h7.63a1.18,1.18,0,0,1,0,2.36Z"/><path class="b45d4c7d-07bf-4961-b87d-f3b01d325708" d="M30.26,21.55H20.47a1.18,1.18,0,0,1,0-2.36h9.79a1.18,1.18,0,0,1,0,2.36Z"/><path class="fa3ec4a2-de09-46e2-a207-b29a80d634bc" d="M39,21.55h-4.9a1.18,1.18,0,0,1,0-2.36H39a1.18,1.18,0,0,1,0,2.36Z"/><path class="bd9bb46b-786e-44c1-b514-75af1b023f5b" d="M38.13,32.45a1.19,1.19,0,0,1-.84-.34l-1.74-1.75a1.17,1.17,0,0,1,0-1.66,1.18,1.18,0,0,1,1.67,0L39,30.44a1.18,1.18,0,0,1,0,1.67A1.16,1.16,0,0,1,38.13,32.45Z"/><path class="e5ef36ab-1858-40da-9530-898794f1663b" d="M36.38,34.24a1.18,1.18,0,0,1-.83-2l1.74-1.74a1.18,1.18,0,0,1,1.67,0,1.17,1.17,0,0,1,0,1.66l-1.74,1.74A1.18,1.18,0,0,1,36.38,34.24Z"/><path class="b14fbbd5-b830-4044-9d34-8868de4beab1" d="M26.87,12.37a1.14,1.14,0,0,1-.81-.34,1.13,1.13,0,0,1,0-1.6l4.8-4.71a1.13,1.13,0,1,1,1.58,1.61L27.66,12A1.12,1.12,0,0,1,26.87,12.37Z"/><path class="f313d1ad-efd9-44ff-876d-d201d09de33a" d="M31.67,17.08a1.11,1.11,0,0,1-.79-.33L26.08,12a1.13,1.13,0,1,1,1.58-1.61l4.8,4.71a1.13,1.13,0,0,1,0,1.6A1.16,1.16,0,0,1,31.67,17.08Z"/><path class="a5210383-dd09-45ca-b189-121b4692a81c" d="M45,12.37a1.11,1.11,0,0,1-.79-.33l-4.8-4.71a1.11,1.11,0,0,1,0-1.59,1.13,1.13,0,0,1,1.6,0l4.8,4.71a1.13,1.13,0,0,1,0,1.6A1.16,1.16,0,0,1,45,12.37Z"/><path class="f519a8e6-1e8c-408a-88e7-7fa539a93392" d="M40.15,17.08a1.14,1.14,0,0,1-.81-.34,1.13,1.13,0,0,1,0-1.6l4.8-4.71A1.13,1.13,0,1,1,45.74,12l-4.8,4.71A1.12,1.12,0,0,1,40.15,17.08Z"/><path class="a66a2c53-1f1b-4a6b-94a6-d98c9b28917a" d="M35.11,17.12a.75.75,0,0,1-.21,0,1.12,1.12,0,0,1-.9-1.32l1.79-9.51a1.12,1.12,0,0,1,1.32-.9A1.13,1.13,0,0,1,38,6.69L36.22,16.2A1.13,1.13,0,0,1,35.11,17.12Z"/></g></g></g></svg>