<svg xmlns="http://www.w3.org/2000/svg" xmlns:xlink="http://www.w3.org/1999/xlink" viewBox="0 0 48.1 48.1"><defs><style>.f27f7099-f80a-485d-bf5f-acade071a6c4{fill:#78e1ec;}.ba1b310d-493c-45bd-954b-46f517f81750{fill:url(#e33cd287-d74a-4488-9a0e-120e3cd5625c);}.b214a0cb-bb4e-4d96-b70f-5d811dbcc1ea{fill:url(#a9a7f300-5cd3-44d7-ae95-001636f14171);}.ba9fb38c-1e08-4ff1-bba0-92404fc9926a{fill:url(#b7f4086d-a64c-4daf-b602-888103328943);}.f3336604-d779-4721-af2a-89f21c8bd714{opacity:0.63;fill:url(#b1cab25a-3105-4c7e-8763-e7790312ffe4);}.af3de8c4-d4ff-43d6-8b69-591599f42710{opacity:0.6;fill:url(#b1345ca7-0bfb-4df9-9fba-4028dbdb8a16);}.b819a614-19ee-4bf4-bf0e-c8c1519af236{fill:url(#f7e9542f-3ad5-422f-83e3-c48178374439);}.af64573b-e189-4263-98a6-2c7b4747cd46{fill:#fff;}.b0ac98e1-10fe-4a02-a72f-085e784a6abd{fill:url(#b87113f8-e2da-4093-8597-e55212b59bf6);}.a2e15c12-9bf8-4ea6-b9e0-27f8af5a8443{fill:url(#f47965f5-0151-4a5c-baaf-5de201406ba7);}.e4c23740-97c4-4440-b31f-6ca160cc3145{fill:url(#af170f90-713c-46ee-88c2-601f3f362841);}.aa3c383d-c3a6-47ce-a41e-cb482001c68a{fill:url(#e8bd496d-2a21-4393-a185-44facffd8740);}.ec3e4d7a-b1f0-4c45-934f-41d646374c0c{fill:url(#b2de0fa7-c51f-4e1e-a07a-36404700a4be);}.e37ba037-9aed-494c-8ffe-a26f8c49d598{fill:url(#a57179ea-e97e-4795-aa25-f091c215535a);}</style><linearGradient id="e33cd287-d74a-4488-9a0e-120e3cd5625c" x1="24.65" y1="15.67" x2="23.69" y2="37.56" gradientUnits="userSpaceOnUse"><stop offset="0" stop-color="#04cfe7"/><stop offset="1" stop-color="#00b1cd"/></linearGradient><linearGradient id="a9a7f300-5cd3-44d7-ae95-001636f14171" x1="13.75" y1="35.57" x2="45.36" y2="18.67" gradientUnits="userSpaceOnUse"><stop offset="0" stop-color="#dff8fa"/><stop offset="1" stop-color="#b3ecf4"/></linearGradient><linearGradient id="b7f4086d-a64c-4daf-b602-888103328943" x1="12.13" y1="44.65" x2="11.37" y2="26.61" gradientUnits="userSpaceOnUse"><stop offset="0" stop-color="#04cfe7"/><stop offset="1" stop-color="#78e1ec"/></linearGradient><linearGradient id="b1cab25a-3105-4c7e-8763-e7790312ffe4" x1="18.46" y1="41.22" x2="18.08" y2="29.96" xlink:href="#b7f4086d-a64c-4daf-b602-888103328943"/><linearGradient id="b1345ca7-0bfb-4df9-9fba-4028dbdb8a16" x1="25.04" y1="41" x2="24.66" y2="29.74" xlink:href="#b7f4086d-a64c-4daf-b602-888103328943"/><linearGradient id="f7e9542f-3ad5-422f-83e3-c48178374439" x1="9.33" y1="37.42" x2="27.13" y2="37.42" xlink:href="#b7f4086d-a64c-4daf-b602-888103328943"/><linearGradient id="b87113f8-e2da-4093-8597-e55212b59bf6" x1="33.25" y1="22.59" x2="33.12" y2="35.52" gradientUnits="userSpaceOnUse"><stop offset="0" stop-color="#0085a2"/><stop offset="1" stop-color="#00b1cd"/></linearGradient><linearGradient id="f47965f5-0151-4a5c-baaf-5de201406ba7" x1="8.02" y1="41.24" x2="66.25" y2="40.6" xlink:href="#b87113f8-e2da-4093-8597-e55212b59bf6"/><linearGradient id="af170f90-713c-46ee-88c2-601f3f362841" x1="16.3" y1="14.44" x2="14.77" y2="29.03" xlink:href="#b87113f8-e2da-4093-8597-e55212b59bf6"/><linearGradient id="e8bd496d-2a21-4393-a185-44facffd8740" x1="14.05" y1="14.62" x2="33.48" y2="14.62" xlink:href="#e33cd287-d74a-4488-9a0e-120e3cd5625c"/><linearGradient id="b2de0fa7-c51f-4e1e-a07a-36404700a4be" x1="34.15" y1="3.37" x2="36.26" y2="32.36" xlink:href="#b87113f8-e2da-4093-8597-e55212b59bf6"/><linearGradient id="a57179ea-e97e-4795-aa25-f091c215535a" x1="13.58" y1="6.69" x2="12.81" y2="20.31" xlink:href="#b87113f8-e2da-4093-8597-e55212b59bf6"/></defs><title>marketing</title><g id="e25ba0b3-bb1c-451a-b0d7-e40e383b322c" data-name="Layer 2"><g id="be4fc1bc-0321-4724-94ba-4e168c6697b9" data-name="icons"><g id="ebcbaa3f-e2b7-4c2d-8173-38157fc14a0f" data-name="marketing"><rect class="f27f7099-f80a-485d-bf5f-acade071a6c4" width="48.1" height="48.1"/><path class="ba1b310d-493c-45bd-954b-46f517f81750" d="M6.36,18.13H41.75a1.35,1.35,0,0,1,1.35,1.35V39.3a0,0,0,0,1,0,0H5a0,0,0,0,1,0,0V19.49A1.35,1.35,0,0,1,6.36,18.13Z"/><rect class="b214a0cb-bb4e-4d96-b70f-5d811dbcc1ea" x="6.54" y="20.16" width="34.83" height="19.91"/><path class="ba9fb38c-1e08-4ff1-bba0-92404fc9926a" d="M10,25.83h3.2a.66.66,0,0,1,.66.66V37.38a0,0,0,0,1,0,0H9.33a0,0,0,0,1,0,0V26.49A.66.66,0,0,1,10,25.83Z"/><path class="f3336604-d779-4721-af2a-89f21c8bd714" d="M16.63,31h3.2a.66.66,0,0,1,.66.66v5.69a0,0,0,0,1,0,0H16a0,0,0,0,1,0,0V31.69A.66.66,0,0,1,16.63,31Z"/><path class="af3de8c4-d4ff-43d6-8b69-591599f42710" d="M23.27,33.72h3.2a.66.66,0,0,1,.66.66v3a0,0,0,0,1,0,0H22.61a0,0,0,0,1,0,0v-3A.66.66,0,0,1,23.27,33.72Z"/><rect class="b819a614-19ee-4bf4-bf0e-c8c1519af236" x="9.33" y="36.8" width="17.8" height="1.25"/><path class="af64573b-e189-4263-98a6-2c7b4747cd46" d="M39.83,28h-6v-6h0a6.06,6.06,0,0,1,1.72.25A6,6,0,0,1,39.83,28Z"/><path class="b0ac98e1-10fe-4a02-a72f-085e784a6abd" d="M39.16,28.7l-6,0v-6a6,6,0,0,0-5.95,6h0a6,6,0,0,0,6,5.95h0a6,6,0,0,0,5.94-6Z"/><path class="a2e15c12-9bf8-4ea6-b9e0-27f8af5a8443" d="M2.57,39.3a.51.51,0,0,0-.5.6,3.56,3.56,0,0,0,3.51,3H42.52a3.55,3.55,0,0,0,3.51-3,.5.5,0,0,0-.5-.58Z"/><path class="e4c23740-97c4-4440-b31f-6ca160cc3145" d="M13.08,19.29V24.4a.91.91,0,0,0,1.65.55l3.87-5.23L13.18,17Z"/><polygon class="aa3c383d-c3a6-47ce-a41e-cb482001c68a" points="33.48 24.59 14.05 18.23 14.05 11.02 33.48 4.66 33.48 24.59"/><rect class="ec3e4d7a-b1f0-4c45-934f-41d646374c0c" x="33.48" y="3.03" width="2.98" height="23.19" rx="1.49"/><rect class="e37ba037-9aed-494c-8ffe-a26f8c49d598" x="11.64" y="9.91" width="2.98" height="9.43" rx="1.49"/></g></g></g></svg>