<svg xmlns="http://www.w3.org/2000/svg" xmlns:xlink="http://www.w3.org/1999/xlink" viewBox="0 0 103.9 103.9"><defs><style>.b20d27a3-c01e-4bad-ac32-141ea26e0309{fill:none;}.a89b8805-e740-4456-b4bc-adf4dc8efbc2{fill:#e8c41e;}.aafccfbb-4382-4bd7-b246-0fa204bf2cc4{clip-path:url(#f67452b0-3132-4733-974e-6159199f5a3e);}.f3a0bfc7-2aaa-4635-bd6c-7dc63a0075e1{opacity:0.1;}.a04b7627-ce39-4e14-a3fb-9d99dfa42a7d{fill:#fcf8e4;}.a072f4fe-64a4-4a65-b818-65294ae825c2{opacity:0.5;}.be96c755-172b-4a62-9047-2aeee123dd24{opacity:0.8;}.a4e9a5db-bb6c-425f-999f-a6f3417d7b1c{opacity:0.4;}.f58e4207-a061-4558-942a-5af48da4289d{fill:#c4922e;}.ee63deeb-0cc0-4d3c-ad69-f578fc416719{fill:#fff;}</style><clipPath id="f67452b0-3132-4733-974e-6159199f5a3e"><rect class="b20d27a3-c01e-4bad-ac32-141ea26e0309" width="103.9" height="103.9"/></clipPath></defs><title>New</title><g id="f6f72d83-d86e-4f07-87db-90b0126b957d" data-name="Layer 2"><g id="e241c4ad-34ba-4150-8567-033a90835bf4" data-name="icons"><rect class="a89b8805-e740-4456-b4bc-adf4dc8efbc2" width="103.9" height="103.9"/><g class="aafccfbb-4382-4bd7-b246-0fa204bf2cc4"><g id="b251b885-0dac-47b9-b815-5dc1cc004cb0" data-name="Layer7 0 FILL"><g class="f3a0bfc7-2aaa-4635-bd6c-7dc63a0075e1"><path class="a04b7627-ce39-4e14-a3fb-9d99dfa42a7d" d="M85,18.52h-.06A45,45,0,0,0,52,4.86,44.7,44.7,0,0,0,19.16,18.52,44.44,44.44,0,0,0,5.45,51.33,44.44,44.44,0,0,0,19.16,84.24,44.77,44.77,0,0,0,52,97.85,45,45,0,0,0,84.94,84.24H85A44.89,44.89,0,0,0,98.45,51.33,45,45,0,0,0,85,18.52m-3,2.95v.05A40.8,40.8,0,0,1,94.23,51.33,40.82,40.82,0,0,1,82,81.24,41,41,0,0,1,52,93.63,40.71,40.71,0,0,1,22.17,81.24h-.05A40.47,40.47,0,0,1,9.67,51.33,40.45,40.45,0,0,1,22.12,21.52h.05A40.64,40.64,0,0,1,52,9.08,41.06,41.06,0,0,1,82,21.47Z"/></g><g class="a072f4fe-64a4-4a65-b818-65294ae825c2"><path class="a04b7627-ce39-4e14-a3fb-9d99dfa42a7d" d="M78.56,25h0A36.19,36.19,0,0,0,52,14,35.48,35.48,0,0,0,25.76,25a35.76,35.76,0,0,0-11,26.42,36,36,0,0,0,11,26.43A35.75,35.75,0,0,0,52,88.62,36.58,36.58,0,0,0,78.51,77.86l0,0A36.35,36.35,0,0,0,89.32,51.43,36,36,0,0,0,78.56,25m-3,2.95V28A31.94,31.94,0,0,1,85.1,51.43,32.61,32.61,0,0,1,52,84.4a31.65,31.65,0,0,1-23.27-9.55A31.94,31.94,0,0,1,19,51.43,31.69,31.69,0,0,1,28.71,28l.05-.05A31.42,31.42,0,0,1,52,18.25,32.26,32.26,0,0,1,75.55,28Z"/></g><g class="be96c755-172b-4a62-9047-2aeee123dd24"><path class="a04b7627-ce39-4e14-a3fb-9d99dfa42a7d" d="M79.4,51.33A26.14,26.14,0,0,0,71.28,32a26.46,26.46,0,0,0-19.2-7.81A27,27,0,0,0,24.81,51.33a26.29,26.29,0,0,0,8,19.3,26.18,26.18,0,0,0,19.25,7.92,26.29,26.29,0,0,0,19.25-7.92h0a26.11,26.11,0,0,0,8.12-19.3M68.33,35a22.14,22.14,0,0,1,6.85,16.3,22.16,22.16,0,0,1-6.85,16.3,22.27,22.27,0,0,1-16.25,6.7,22.15,22.15,0,0,1-16.25-6.7A22.26,22.26,0,0,1,29,51.33,22.32,22.32,0,0,1,35.78,35l0-.05a22.37,22.37,0,0,1,16.25-6.55A22.31,22.31,0,0,1,68.33,35Z"/></g></g></g><g class="a4e9a5db-bb6c-425f-999f-a6f3417d7b1c"><g id="e353a77f-b6d5-4a27-ace0-0c9400c675ba" data-name="star"><path class="f58e4207-a061-4558-942a-5af48da4289d" d="M53.29,39.3a.75.75,0,0,0,0,1.26l5.32,2.61c4.3,2.11,7.7,6.62,9.29,12.34l2,7.07a.54.54,0,0,0,.48.44.53.53,0,0,0,.47-.44l2-7.07c1.58-5.72,5-10.23,9.29-12.34l5.32-2.61a.77.77,0,0,0,0-1.26l-5.32-2.61c-4.31-2.11-7.71-6.62-9.29-12.34l-2-7.07a.53.53,0,0,0-.47-.44.54.54,0,0,0-.48.44l-2,7.07c-1.59,5.72-5,10.23-9.29,12.34L53.29,39.3Z"/></g><g id="faad1062-bad8-4fdb-bb0e-9603396b2d84" data-name="star"><path class="f58e4207-a061-4558-942a-5af48da4289d" d="M31.52,70.5a.55.55,0,0,0-.26.5.52.52,0,0,0,.26.49l4.16,2c3.37,1.65,6,5.18,7.26,9.65l1.54,5.53a.37.37,0,0,0,.74,0l1.54-5.53c1.24-4.47,3.89-8,7.26-9.65l4.16-2a.52.52,0,0,0,.26-.49.55.55,0,0,0-.26-.5l-4.16-2c-3.37-1.65-6-5.17-7.26-9.65l-1.54-5.52a.37.37,0,0,0-.74,0l-1.54,5.52c-1.24,4.48-3.89,8-7.26,9.65l-4.16,2Z"/></g><g id="be17696d-a31d-4936-a49e-cd8f942452d2" data-name="star"><path class="f58e4207-a061-4558-942a-5af48da4289d" d="M30.32,28.29a.28.28,0,0,0-.14.27.27.27,0,0,0,.14.26l2.24,1.1a8,8,0,0,1,3.92,5.21l.83,3a.2.2,0,0,0,.4,0l.83-3a8.08,8.08,0,0,1,3.92-5.21l2.25-1.1a.29.29,0,0,0,.14-.26.3.3,0,0,0-.14-.27l-2.25-1.1A8.08,8.08,0,0,1,38.54,22l-.83-3a.2.2,0,0,0-.4,0l-.83,3a8,8,0,0,1-3.92,5.21l-2.24,1.1Z"/></g></g><g id="a444d7d0-5087-40ec-b6e8-1ecb93551bf2" data-name="star"><path class="ee63deeb-0cc0-4d3c-ad69-f578fc416719" d="M51.29,38.3a.75.75,0,0,0,0,1.26l5.32,2.61c4.3,2.11,7.7,6.62,9.29,12.34l2,7.07a.54.54,0,0,0,.48.44.53.53,0,0,0,.47-.44l2-7.07c1.58-5.72,5-10.23,9.29-12.34l5.32-2.61a.77.77,0,0,0,0-1.26l-5.32-2.61c-4.31-2.11-7.71-6.62-9.29-12.34l-2-7.07a.53.53,0,0,0-.47-.44.54.54,0,0,0-.48.44l-2,7.07c-1.59,5.72-5,10.23-9.29,12.34L51.29,38.3Z"/></g><g id="e17b56df-92f2-4479-8d3a-41071a5d2c83" data-name="star"><path class="ee63deeb-0cc0-4d3c-ad69-f578fc416719" d="M29.52,69.5a.55.55,0,0,0-.26.5.52.52,0,0,0,.26.49l4.16,2c3.37,1.65,6,5.18,7.26,9.65l1.54,5.53a.37.37,0,0,0,.74,0l1.54-5.53c1.24-4.47,3.89-8,7.26-9.65l4.16-2a.52.52,0,0,0,.26-.49.55.55,0,0,0-.26-.5l-4.16-2c-3.37-1.65-6-5.17-7.26-9.65l-1.54-5.52a.37.37,0,0,0-.74,0l-1.54,5.52c-1.24,4.48-3.89,8-7.26,9.65l-4.16,2Z"/></g><g id="a117f541-549e-4aea-b1fb-95696e03f903" data-name="star"><path class="ee63deeb-0cc0-4d3c-ad69-f578fc416719" d="M28.32,27.29a.28.28,0,0,0-.14.27.27.27,0,0,0,.14.26l2.24,1.1a8,8,0,0,1,3.92,5.21l.83,3a.2.2,0,0,0,.4,0l.83-3a8.08,8.08,0,0,1,3.92-5.21l2.25-1.1a.29.29,0,0,0,.14-.26.3.3,0,0,0-.14-.27l-2.25-1.1A8.08,8.08,0,0,1,36.54,21l-.83-3a.2.2,0,0,0-.4,0l-.83,3a8,8,0,0,1-3.92,5.21l-2.24,1.1Z"/></g></g></g></svg>