<svg xmlns="http://www.w3.org/2000/svg" xmlns:xlink="http://www.w3.org/1999/xlink" viewBox="0 0 47.96 47.96"><defs><style>.b5b72cfd-911e-4eb6-aa8e-6f5476b42055{fill:#eac500;}.a4217340-fe29-415a-9863-fc25d9265457,.a9f2a005-5ccb-428e-985f-456d0a09f7ae,.baa4ef17-1dce-4131-8221-fabbfa182339,.bbeb71b8-2f6a-447b-8b36-a9ee429ffb06{fill:#fefae4;}.baa4ef17-1dce-4131-8221-fabbfa182339{fill-opacity:0.1;}.a9f2a005-5ccb-428e-985f-456d0a09f7ae{fill-opacity:0.5;}.a4217340-fe29-415a-9863-fc25d9265457{fill-opacity:0.8;}.bc478d8b-56e6-4843-b00d-df3bb9210b42{fill:none;stroke:#fff;stroke-linecap:round;stroke-linejoin:round;stroke-width:2.4px;}.f4d7e0dd-b90f-4e4c-b479-103c52048875{fill:url(#b4dd124a-010c-486f-a6b7-cd9a1329f73a);}.add5650b-48ff-4819-b28f-56b55c3333d1{fill:url(#b05eb3ec-2e32-42de-921c-9ff980aba8e2);}.b465c710-d0ee-44bc-b486-f6dbd4884190{fill:url(#b88e97b6-771d-45bd-8385-a6776c543747);}.a584b480-22a1-404a-adc5-e3ff8dd89a42{fill:url(#f36142d9-6300-47c5-a094-d2f691b89214);}.ee1344e7-b9ed-4909-bcd1-1b55660a6e84{fill:url(#a1fe725b-eaa0-4129-874c-9c6dd5edcb89);}.eb15291c-a14e-4f58-857e-72774ea31da6{fill:#fff;}.b6c4e52a-d789-4421-9eca-c4c8f47957ea{fill:url(#a0404ba5-dc5d-4058-972b-e03fedf74199);}.a0602039-5101-463d-aea2-080341a477f8{fill:url(#b19bc740-7a8c-479f-91db-1192a3510694);}.f7ad1e74-eb5d-4a82-8189-47776635e7fc{fill:url(#fa3eae0c-3dfd-40a0-a290-c8cc2bfcc7ba);}.e95799f8-2d13-4637-9b03-7db6ee3a415b{fill:url(#ae28a552-54aa-4bf6-8f8a-d4295fd90e9b);}.a710887a-7edb-41a1-b95f-2f69a3a17359{fill:url(#bac80c52-64a1-4a43-a34d-1385f07b30cb);}.a4e07afe-d22d-47ac-870c-92ce3245d23b{fill:url(#a5040584-d6b9-4f69-b969-1da6aea0f922);}</style><linearGradient id="b4dd124a-010c-486f-a6b7-cd9a1329f73a" x1="43.74" y1="34.25" x2="39.53" y2="35.02" gradientUnits="userSpaceOnUse"><stop offset="0" stop-color="#d1a209"/><stop offset="1" stop-color="#c38e30"/></linearGradient><linearGradient id="b05eb3ec-2e32-42de-921c-9ff980aba8e2" x1="31.33" y1="30.17" x2="26.86" y2="32.78" gradientUnits="userSpaceOnUse"><stop offset="0" stop-color="#f5e150"/><stop offset="1" stop-color="#c38e30"/></linearGradient><linearGradient id="b88e97b6-771d-45bd-8385-a6776c543747" x1="21.19" y1="30.38" x2="16.16" y2="32.55" xlink:href="#b05eb3ec-2e32-42de-921c-9ff980aba8e2"/><linearGradient id="f36142d9-6300-47c5-a094-d2f691b89214" x1="21.3" y1="33.96" x2="21.3" y2="29.68" xlink:href="#b4dd124a-010c-486f-a6b7-cd9a1329f73a"/><linearGradient id="a1fe725b-eaa0-4129-874c-9c6dd5edcb89" x1="23.73" y1="22.23" x2="1.14" y2="22.42" gradientUnits="userSpaceOnUse"><stop offset="0" stop-color="#f5e150"/><stop offset="1" stop-color="#fbf3bc"/></linearGradient><linearGradient id="a0404ba5-dc5d-4058-972b-e03fedf74199" x1="28.86" y1="43.55" x2="24.14" y2="43.43" xlink:href="#b4dd124a-010c-486f-a6b7-cd9a1329f73a"/><linearGradient id="b19bc740-7a8c-479f-91db-1192a3510694" x1="26.53" y1="24.7" x2="26.28" y2="20.8" xlink:href="#b4dd124a-010c-486f-a6b7-cd9a1329f73a"/><linearGradient id="fa3eae0c-3dfd-40a0-a290-c8cc2bfcc7ba" x1="26.75" y1="24.68" x2="26.5" y2="20.79" xlink:href="#b4dd124a-010c-486f-a6b7-cd9a1329f73a"/><linearGradient id="ae28a552-54aa-4bf6-8f8a-d4295fd90e9b" x1="26.49" y1="12.56" x2="18.54" y2="18.97" gradientUnits="userSpaceOnUse"><stop offset="0" stop-color="#f8dc01"/><stop offset="1" stop-color="#c38e30"/></linearGradient><linearGradient id="bac80c52-64a1-4a43-a34d-1385f07b30cb" x1="32.94" y1="12.52" x2="39.38" y2="6.46" xlink:href="#a1fe725b-eaa0-4129-874c-9c6dd5edcb89"/><linearGradient id="a5040584-d6b9-4f69-b969-1da6aea0f922" x1="40.59" y1="26.64" x2="34.98" y2="30.72" xlink:href="#ae28a552-54aa-4bf6-8f8a-d4295fd90e9b"/></defs><title>project management</title><g id="be64f68d-2a29-4d35-923b-d80f00e67b0a" data-name="Layer 2"><g id="b4ebeb04-c4f9-419b-bf92-a5f4bc19da30" data-name="icons"><g id="e5903b27-1d20-4195-b86b-f2bda6b48468" data-name="project management"><rect class="b5b72cfd-911e-4eb6-aa8e-6f5476b42055" width="47.96" height="47.96"/><g id="a2b36736-2f20-40ff-9d31-2e6cdf46a7c3" data-name="Layer7 0 FILL"><path class="baa4ef17-1dce-4131-8221-fabbfa182339" d="M24.33,7.09h0a4.22,4.22,0,0,0-6,0,4.06,4.06,0,0,0-1.25,3,4.25,4.25,0,0,0,4.24,4.23,4.12,4.12,0,0,0,3-1.24h0a4.08,4.08,0,0,0,1.23-3,4.09,4.09,0,0,0-1.23-3m-.27.27h0a3.7,3.7,0,0,1,1.11,2.71,3.84,3.84,0,0,1-6.55,2.72h0a3.68,3.68,0,0,1-1.13-2.72,3.64,3.64,0,0,1,1.13-2.71h0a3.69,3.69,0,0,1,2.72-1.14A3.75,3.75,0,0,1,24.06,7.36Z"/><path class="a9f2a005-5ccb-428e-985f-456d0a09f7ae" d="M23.75,7.68h0a3.28,3.28,0,0,0-2.4-1,3.23,3.23,0,0,0-2.39,1,3.25,3.25,0,0,0-1,2.41,3.38,3.38,0,0,0,3.39,3.38,3.31,3.31,0,0,0,2.4-1h0a3.29,3.29,0,0,0,1-2.39,3.3,3.3,0,0,0-1-2.41M23.48,8h0a2.93,2.93,0,0,1,.86,2.13,2.94,2.94,0,0,1-3,3,3,3,0,0,1-3-3A2.88,2.88,0,0,1,19.22,8h0a2.86,2.86,0,0,1,2.12-.88A2.94,2.94,0,0,1,23.48,8Z"/><path class="a4217340-fe29-415a-9863-fc25d9265457" d="M23.83,10.08a2.4,2.4,0,0,0-.74-1.76,2.48,2.48,0,0,0-4.23,1.76,2.4,2.4,0,0,0,.73,1.75,2.49,2.49,0,0,0,3.5,0h0a2.37,2.37,0,0,0,.74-1.75m-1-1.49a2.06,2.06,0,0,1,.62,1.49,2.1,2.1,0,1,1-3.58-1.49h0a2.13,2.13,0,0,1,3,0Z"/><path class="bbeb71b8-2f6a-447b-8b36-a9ee429ffb06" d="M22.27,9.11a1.35,1.35,0,0,0-1-.4,1.33,1.33,0,0,0-1,.4,1.31,1.31,0,0,0-.4,1,1.37,1.37,0,0,0,1.36,1.36,1.31,1.31,0,0,0,1-.4,1.33,1.33,0,0,0,.4-1A1.35,1.35,0,0,0,22.27,9.11Z"/></g><path id="f1a1011d-5740-40dc-9b81-91a07c5373a4" data-name="Layer6 0 1 STROKES" class="bc478d8b-56e6-4843-b00d-df3bb9210b42" d="M28.16,33.29a9.3,9.3,0,0,0,10.49,2.16"/><g id="ff701d21-c6bd-4c46-b392-c022746a29f4" data-name="Layer6 0 2 STROKES"><path class="f4d7e0dd-b90f-4e4c-b479-103c52048875" d="M39,36.3a.41.41,0,0,1-.3-.14.39.39,0,0,1,.06-.54,2.31,2.31,0,0,1,2.54-.35.39.39,0,0,1,.19.51A.38.38,0,0,1,41,36a1.55,1.55,0,0,0-1.74.25A.41.41,0,0,1,39,36.3Zm-.1-1.41a.37.37,0,0,1-.3-.14.39.39,0,0,1,.06-.54,2.32,2.32,0,0,1,2.54-.34.39.39,0,0,1,.19.51.39.39,0,0,1-.51.19,1.52,1.52,0,0,0-1.74.24A.35.35,0,0,1,38.92,34.89Z"/></g><path class="add5650b-48ff-4819-b28f-56b55c3333d1" d="M24.94,32.89a2.55,2.55,0,0,0,.46.63,2.15,2.15,0,0,0,1.58.66,2.12,2.12,0,0,0,1.57-.66,2.16,2.16,0,0,0,.66-1.58,2.11,2.11,0,0,0-.66-1.57,2.91,2.91,0,0,0-.27-.24,10,10,0,0,1-.87,1A8.68,8.68,0,0,1,24.94,32.89Z"/><path class="b465c710-d0ee-44bc-b486-f6dbd4884190" d="M19.79,31.94a2.1,2.1,0,0,0-.65-1.57,2.22,2.22,0,0,0-3.16,0,2.21,2.21,0,0,0-.58,1,2.9,2.9,0,0,0-.07.6A2.19,2.19,0,0,0,16,33.52a2.22,2.22,0,0,0,3.16,0l.09-.09A2.17,2.17,0,0,0,19.79,31.94Z"/><path class="a584b480-22a1-404a-adc5-e3ff8dd89a42" d="M17.74,28.86H13.53a8.87,8.87,0,0,0,1.66,2.27l.21.21a2.21,2.21,0,0,1,.58-1,2.22,2.22,0,0,1,3.16,0,2.1,2.1,0,0,1,.65,1.57,2.17,2.17,0,0,1-.56,1.49,9.31,9.31,0,0,0,2.07.23,8.28,8.28,0,0,0,6.11-2.53,10,10,0,0,0,.87-1,8.92,8.92,0,0,0,.79-1.27Z"/><path class="ee1344e7-b9ed-4909-bcd1-1b55660a6e84" d="M7,15.8a1.59,1.59,0,0,0-1.79,1.8v9.46A1.59,1.59,0,0,0,7,28.86H17.66a3.06,3.06,0,0,1-.45-.06,1.53,1.53,0,0,1-1.27-1.74V17.6a1.58,1.58,0,0,1,1.72-1.8Z"/><path class="eb15291c-a14e-4f58-857e-72774ea31da6" d="M37.23,27.06V17.6a1.58,1.58,0,0,0-1.79-1.8H17.66a1.58,1.58,0,0,0-1.72,1.8v9.46a1.53,1.53,0,0,0,1.27,1.74,3.06,3.06,0,0,0,.45.06H35.44A1.58,1.58,0,0,0,37.23,27.06Z"/><path id="e450c528-6f6b-4ac3-bebd-c50a129b82e4" data-name="Layer3 0 1 STROKES" class="bc478d8b-56e6-4843-b00d-df3bb9210b42" d="M17.41,32.73q-.61,6.21,4.94,9.5"/><g id="a997c9f0-ac20-438f-959d-36bac1a00f3b" data-name="Layer3 0 2 STROKES"><path class="b6c4e52a-d789-4421-9eca-c4c8f47957ea" d="M23.48,44.84a.35.35,0,0,1-.14,0,2.78,2.78,0,0,1-1.43-1.15.39.39,0,0,1,.66-.41,1.94,1.94,0,0,0,1,.84.39.39,0,0,1-.13.75Zm.74-1.1a.28.28,0,0,1-.13,0,2.73,2.73,0,0,1-1.44-1.16.39.39,0,0,1,.13-.53.38.38,0,0,1,.52.13,2,2,0,0,0,1.05.84.39.39,0,0,1-.13.75Z"/></g><g id="fd613a8c-c269-4d9c-b941-9ede02915bbe" data-name="Layer2 0 FILL"><path class="a0602039-5101-463d-aea2-080341a477f8" d="M25.05,26.1c-.19,0-.27.1-.24.29s.24.34.6.48a3.69,3.69,0,0,0,1.23.22,3.6,3.6,0,0,0,1.23-.22c.37-.14.56-.3.59-.48s0-.28-.22-.29Z"/><path class="f7ad1e74-eb5d-4a82-8189-47776635e7fc" d="M33.25,20.63a.9.9,0,0,0-.66-.27.87.87,0,0,0-.64.27.89.89,0,0,0-.27.65v1.8a.92.92,0,0,0,.91.92.9.9,0,0,0,.66-.27.88.88,0,0,0,.27-.65v-1.8a.89.89,0,0,0-.27-.65m-12,0a.89.89,0,0,0-.65-.27.88.88,0,0,0-.65.27.89.89,0,0,0-.27.65v1.8a.92.92,0,0,0,.92.92.89.89,0,0,0,.65-.27.87.87,0,0,0,.26-.65v-1.8A.88.88,0,0,0,21.23,20.63Z"/></g><circle class="e95799f8-2d13-4637-9b03-7db6ee3a415b" cx="23.45" cy="15.01" r="4.17"/><circle class="a710887a-7edb-41a1-b95f-2f69a3a17359" cx="36.3" cy="9.35" r="4.17"/><circle class="a4e07afe-d22d-47ac-870c-92ce3245d23b" cx="38.51" cy="28.15" r="4.17"/></g></g></g></svg>