<svg xmlns="http://www.w3.org/2000/svg" xmlns:xlink="http://www.w3.org/1999/xlink" viewBox="0 0 104.03 104.04"><defs><style>.b693d52b-197f-4182-b2fc-7de1dd257cf0{fill:none;}.b30f988f-8374-4170-ae87-99b9cbfc66f5{clip-path:url(#f3f6a923-3529-4bfc-879d-bc315a6f4fbc);}.f9648bc1-cc3e-4a2f-99ba-2edcedbbb922{fill:url(#a89f444d-571a-4952-a05e-e638be9b10fc);}.fbd104ed-12ce-4b6e-9dc7-e017f7d077bd{clip-path:url(#ae47c0e2-8d7e-4315-8f39-5c1b3d331062);}.ffdf1f98-6c3d-4a59-a09c-32eae0534fe0{fill:url(#ac373418-0d15-4707-a2bd-442f1758c5fd);}.be2e48db-812e-4199-82ca-286a131f6fa9{clip-path:url(#a10a8f9c-6310-4f12-a562-27a189f0ae85);}.ee2dcc27-c03f-4ee1-888c-5ffaa899d21b{fill:url(#faa561d5-16d2-4912-a0ef-78116ed942f1);}.ea9c2650-b99e-46d6-882a-ca6b3fc27b4a{clip-path:url(#aa549d9c-d07a-4a07-8ddf-e2cb9bae3379);}.a7fcb463-890f-4d4e-8f01-aebdbc3a0305{fill:url(#a67385af-323c-4530-9516-b2aa0e1492cf);}.acfac0d0-2586-4f91-b5d9-c96a684cb870{clip-path:url(#a6d9d58b-de35-44e1-ae4e-42a8d43ef34d);}.b4a05bc0-0afa-4a92-81a7-cc4b9c83237c{fill:url(#e44e3210-ce8e-4399-856f-78511ad6d3bd);}.bd821faf-a291-4cd9-b8e7-1d258b1a92ad{clip-path:url(#ad4db2af-d1f3-4436-847e-0dbd5cffab9f);}.e2cd4ff0-6b70-438a-b911-1e8ed64af9db{fill:url(#e0ae3270-377e-4469-b99d-1456a98a7f28);}.b1ad53f3-6803-4dc3-bd32-06fa71a98430{clip-path:url(#ea1d604c-9a48-4f3a-89ef-09a43eabdb0e);}.a625e56d-9cf3-435c-a03a-77fac3febee5{fill:url(#a92f4d45-b872-4c26-964a-a1cb9aabfb69);}.bc9ce861-ba1d-4390-bbde-0dcd22d3fda2{clip-path:url(#eb5bf778-2afa-4511-85ee-32b1bf9412ba);}.b566a66b-63d0-4ad1-817a-acf3a7fdc61a{fill:url(#fd85b772-ae07-480e-984c-6aae79baa725);}</style><clipPath id="f3f6a923-3529-4bfc-879d-bc315a6f4fbc"><rect id="eccec78b-91ed-48b1-be8f-cd8224600e09" data-name="SVGID" class="b693d52b-197f-4182-b2fc-7de1dd257cf0" width="104.03" height="104.04"/></clipPath><linearGradient id="a89f444d-571a-4952-a05e-e638be9b10fc" x1="208.08" y1="135.53" x2="209.08" y2="135.53" gradientTransform="matrix(131.67, 131.67, 131.67, -131.67, -45236.77, -9547.36)" gradientUnits="userSpaceOnUse"><stop offset="0" stop-color="#44a6d1"/><stop offset="1" stop-color="#7fbedb"/></linearGradient><clipPath id="ae47c0e2-8d7e-4315-8f39-5c1b3d331062"><path id="a604b6dc-cf46-4543-a06b-4cf5f504100f" data-name="SVGID" class="b693d52b-197f-4182-b2fc-7de1dd257cf0" d="M66.27,31.78c-6,0-11.08,1-17,2.12A8.92,8.92,0,0,0,42,43.48l2,21.94a8.93,8.93,0,0,0,8.89,8.13H65.23A6.81,6.81,0,0,1,72,80.35v1a7,7,0,0,0,7,7h.2a7,7,0,0,1,7,7V104H104V40.48H96c-5.18,0-4-3.92-6.45-6.34S86.18,31.81,82,31.78l-5.24,0-10.48,0"/></clipPath><linearGradient id="ac373418-0d15-4707-a2bd-442f1758c5fd" x1="210.4" y1="136.75" x2="211.4" y2="136.75" gradientTransform="matrix(-123.19, -69.75, -69.75, 123.19, 35616.68, -2059.72)" gradientUnits="userSpaceOnUse"><stop offset="0" stop-color="#006baa"/><stop offset="1" stop-color="#007ac2"/><stop offset="1" stop-color="#007ac2"/></linearGradient><clipPath id="a10a8f9c-6310-4f12-a562-27a189f0ae85"><path id="a0689563-332a-4f7d-8003-727efa9fccf5" data-name="SVGID" class="b693d52b-197f-4182-b2fc-7de1dd257cf0" d="M0,0V35a7.15,7.15,0,0,1,6.41,7.11V55.26a6.65,6.65,0,0,0,13.18,1.26l4-20.57a11.9,11.9,0,0,1,9.3-9.41l7.23-1.47a9.24,9.24,0,0,0,7.39-9v-4.4A19.6,19.6,0,0,1,50.74.79L51.26,0Z"/></clipPath><linearGradient id="faa561d5-16d2-4912-a0ef-78116ed942f1" x1="204.92" y1="136.83" x2="205.92" y2="136.83" gradientTransform="matrix(51.27, 0, 0, -51.27, -10506.5, 7046.02)" xlink:href="#ac373418-0d15-4707-a2bd-442f1758c5fd"/><clipPath id="aa549d9c-d07a-4a07-8ddf-e2cb9bae3379"><path id="b58daf99-4cc6-4485-bfd6-89a5b7603891" data-name="SVGID" class="b693d52b-197f-4182-b2fc-7de1dd257cf0" d="M0,104H62.84l-1.3-3.82a11.56,11.56,0,0,0-9.4-7.79,11.42,11.42,0,0,0-1.55-.1H47.72a5.6,5.6,0,0,1-5.6-5.61,3.18,3.18,0,0,0-3.18-3.17H21.37a3.18,3.18,0,0,0-3.17,3.17,2.89,2.89,0,0,1-5.08,1.9L0,73.47Z"/></clipPath><linearGradient id="a67385af-323c-4530-9516-b2aa0e1492cf" x1="205.68" y1="136.71" x2="206.67" y2="136.71" gradientTransform="matrix(62.86, 0, 0, -62.86, -12928.11, 8681.92)" xlink:href="#ac373418-0d15-4707-a2bd-442f1758c5fd"/><clipPath id="a6d9d58b-de35-44e1-ae4e-42a8d43ef34d"><path id="af9b8966-9c01-4edb-a8d6-c002ab733771" data-name="SVGID" class="b693d52b-197f-4182-b2fc-7de1dd257cf0" d="M66.33,32.71a9,9,0,1,1,9,9,9.06,9.06,0,0,1-9-9M58.6,32.5a16.67,16.67,0,0,0,3,9.79L72,60.37a3.86,3.86,0,0,0,6.68,0L89.16,42.29A16.78,16.78,0,1,0,58.6,32.5"/></clipPath><linearGradient id="e44e3210-ce8e-4399-856f-78511ad6d3bd" x1="208.61" y1="133.67" x2="209.61" y2="133.67" gradientTransform="matrix(0, 82.68, 82.68, 0, -10977.38, -17247.09)" gradientUnits="userSpaceOnUse"><stop offset="0" stop-color="#fff"/><stop offset="1" stop-color="#b6daeb"/></linearGradient><clipPath id="ad4db2af-d1f3-4436-847e-0dbd5cffab9f"><path id="e04170f3-347e-43bb-bb23-a2d6edcf0a27" data-name="SVGID" class="b693d52b-197f-4182-b2fc-7de1dd257cf0" d="M13.59,22.51a5.55,5.55,0,1,1,5.55,5.55,5.55,5.55,0,0,1-5.55-5.55m-4.75-.13a10.3,10.3,0,0,0,1.84,6l6.41,11.1a2.37,2.37,0,0,0,4.1,0l6.41-11.1a10.3,10.3,0,1,0-18.76-6"/></clipPath><linearGradient id="e0ae3270-377e-4469-b99d-1456a98a7f28" x1="208.37" y1="132.11" x2="209.37" y2="132.11" gradientTransform="matrix(0, 51.13, 51.13, 0, -6736.28, -10648.54)" xlink:href="#e44e3210-ce8e-4399-856f-78511ad6d3bd"/><clipPath id="ea1d604c-9a48-4f3a-89ef-09a43eabdb0e"><path id="b4499c4e-dd7a-4f67-9cc2-7ac4c1212634" data-name="SVGID" class="b693d52b-197f-4182-b2fc-7de1dd257cf0" d="M23.45,70.88A6.07,6.07,0,1,1,29.52,77a6.07,6.07,0,0,1-6.07-6.07m-5.18-.14a11.22,11.22,0,0,0,2,6.56l7,12.13a2.59,2.59,0,0,0,4.48,0l7-12.13a11.25,11.25,0,1,0-20.49-6.56"/></clipPath><linearGradient id="a92f4d45-b872-4c26-964a-a1cb9aabfb69" x1="208.45" y1="132.62" x2="209.45" y2="132.62" gradientTransform="matrix(0, 58.39, 58.39, 0, -7714.17, -12118.62)" xlink:href="#e44e3210-ce8e-4399-856f-78511ad6d3bd"/><clipPath id="eb5bf778-2afa-4511-85ee-32b1bf9412ba"><path id="fc32b9f7-eb4e-4887-8adf-a79e31a59c9c" data-name="SVGID" class="b693d52b-197f-4182-b2fc-7de1dd257cf0" d="M83,0c.15,7.39,2.14,15.23,6.55,14.65L104,12.78V0Z"/></clipPath><linearGradient id="fd85b772-ae07-480e-984c-6aae79baa725" x1="220.21" y1="129.64" x2="221.21" y2="129.64" gradientTransform="matrix(-15.13, 6.01, 6.01, 15.13, 2651.26, -3280.53)" xlink:href="#ac373418-0d15-4707-a2bd-442f1758c5fd"/></defs><title>Remote</title><g id="f671fc82-737b-4e13-b267-5962b43cba4c" data-name="Layer 2"><g id="fa6d86d3-14db-45fa-b985-0393c9a91e6d" data-name="Layer 1"><g class="b30f988f-8374-4170-ae87-99b9cbfc66f5"><rect class="f9648bc1-cc3e-4a2f-99ba-2edcedbbb922" width="104.03" height="104.04"/></g><g class="fbd104ed-12ce-4b6e-9dc7-e017f7d077bd"><polygon class="ffdf1f98-6c3d-4a59-a09c-32eae0534fe0" points="104.03 104.04 84.15 104.04 10.54 86.47 56.74 4.87 104.03 21.68 104.03 104.04"/></g><g class="be2e48db-812e-4199-82ca-286a131f6fa9"><rect class="ee2dcc27-c03f-4ee1-888c-5ffaa899d21b" width="51.26" height="61.91"/></g><g class="ea9c2650-b99e-46d6-882a-ca6b3fc27b4a"><rect class="a7fcb463-890f-4d4e-8f01-aebdbc3a0305" y="73.47" width="62.84" height="30.57"/></g><g class="acfac0d0-2586-4f91-b5d9-c96a684cb870"><rect class="b4a05bc0-0afa-4a92-81a7-cc4b9c83237c" x="58.55" y="15.92" width="33.61" height="47.02"/></g><g class="bd821faf-a291-4cd9-b8e7-1d258b1a92ad"><rect class="e2cd4ff0-6b70-438a-b911-1e8ed64af9db" x="8.82" y="12.21" width="20.62" height="28.85"/></g><g class="b1ad53f3-6803-4dc3-bd32-06fa71a98430"><rect class="a625e56d-9cf3-435c-a03a-77fac3febee5" x="18.24" y="59.62" width="22.54" height="31.53"/></g><g class="bc9ce861-ba1d-4390-bbde-0dcd22d3fda2"><polygon class="b566a66b-63d0-4ad1-817a-acf3a7fdc61a" points="104.03 14.68 85.9 22.43 77.81 2.08 77.81 0 104.03 0 104.03 14.68"/></g></g></g></svg>